<svg xmlns="http://www.w3.org/2000/svg" width="760" height="700" viewBox="0 0 760 700">
  <defs>
    <linearGradient id="skin" x1="0" y1="0" x2="1" y2="1">
      <stop offset="0" stop-color="#fff2df"/>
      <stop offset="1" stop-color="#f3c5a9"/>
    </linearGradient>
    <radialGradient id="glow" cx="50%" cy="45%" r="60%">
      <stop offset="0" stop-color="#fff" stop-opacity=".9"/>
      <stop offset=".65" stop-color="#fff" stop-opacity=".18"/>
      <stop offset="1" stop-color="#fff" stop-opacity="0"/>
    </radialGradient>
  </defs>
  <rect width="760" height="700" fill="#fff"/>
  <ellipse cx="385" cy="335" rx="205" ry="255" fill="url(#skin)"/>
  <path d="M197 245c78-190 340-190 392 4-100-112-280-116-392-4Z" fill="#1f1f1f"/>
  <ellipse cx="298" cy="326" rx="34" ry="19" fill="#2b271f"/>
  <ellipse cx="468" cy="326" rx="34" ry="19" fill="#2b271f"/>
  <path d="M350 344c-10 48-22 86 16 89" fill="none" stroke="#c58d73" stroke-width="10" stroke-linecap="round"/>
  <path d="M314 488c52 36 120 34 156 0" fill="none" stroke="#d87982" stroke-width="10" stroke-linecap="round"/>
  <path d="M380 80v540M128 350h500" stroke="#fff" stroke-width="3" opacity=".7"/>
  <circle cx="380" cy="350" r="238" fill="none" stroke="#fff" stroke-width="4" opacity=".75"/>
  <circle cx="380" cy="350" r="172" fill="none" stroke="#fff" stroke-width="2" opacity=".45"/>
  <rect width="760" height="700" fill="url(#glow)"/>
</svg>